<svg data-name="BMP logo" xmlns="http://www.w3.org/2000/svg" width="108.792" height="34.296" viewBox="0 0 108.792 34.296">
    <defs>
        <clipPath id="rkpo64kf1a">
            <path data-name="Rectangle 309" style="fill:none" d="M0 0h108.792v34.296H0z"/>
        </clipPath>
    </defs>
    <g data-name="Group 422" style="clip-path:url(#rkpo64kf1a)">
        <path data-name="Path 1277" d="M189.368 51.211a13.046 13.046 0 0 1 2.729.264 5.9 5.9 0 0 1 2.113.866 4.029 4.029 0 0 1 1.365 1.6 5.621 5.621 0 0 1 .484 2.465 4.591 4.591 0 0 1-.719 2.641 5.226 5.226 0 0 1-2.128 1.731 5.04 5.04 0 0 1 2.888 1.952 6.407 6.407 0 0 1 .337 6.1 5.347 5.347 0 0 1-1.658 1.893 7.339 7.339 0 0 1-2.377 1.086 10.711 10.711 0 0 1-2.744.352h-10.151v-20.95zm-.587 8.481a3.31 3.31 0 0 0 2.025-.587 2.217 2.217 0 0 0 .794-1.905 2.436 2.436 0 0 0-.264-1.2 1.955 1.955 0 0 0-.7-.734 2.971 2.971 0 0 0-1.012-.367 6.733 6.733 0 0 0-1.189-.1h-4.314v4.9zm.264 8.892a6.148 6.148 0 0 0 1.291-.132 3.17 3.17 0 0 0 1.086-.44 2.224 2.224 0 0 0 .748-.836 2.882 2.882 0 0 0 .279-1.35 2.711 2.711 0 0 0-.91-2.3 3.885 3.885 0 0 0-2.406-.69h-5.018v5.752z" transform="translate(-132.881 -37.909)" style="fill:#f48678"/>
        <path data-name="Path 1278" d="M268.5 51.211a8.735 8.735 0 0 1 3.346.572 6.267 6.267 0 0 1 2.245 1.511 5.816 5.816 0 0 1 1.262 2.142 8 8 0 0 1 0 4.974 5.787 5.787 0 0 1-1.262 2.157 6.26 6.26 0 0 1-2.245 1.511 8.73 8.73 0 0 1-3.346.572h-4.842v3.68a3.834 3.834 0 0 1-3.834 3.834h-.773V51.211zm-1.262 9.861a9.628 9.628 0 0 0 1.526-.117 3.545 3.545 0 0 0 1.291-.455 2.476 2.476 0 0 0 .895-.954 4.027 4.027 0 0 0 0-3.228 2.479 2.479 0 0 0-.895-.954 3.559 3.559 0 0 0-1.291-.455 9.689 9.689 0 0 0-1.526-.117h-3.58v6.28z" transform="translate(-191.761 -37.909)" style="fill:#f48678"/>
        <path data-name="Path 1279" d="M335.634 51.211a6.95 6.95 0 0 1 6.633 4.978l3.208 9.431h.059l2.683-9.325a7.33 7.33 0 0 1 6.978-5.085h1.144v20.955h-.89a3.424 3.424 0 0 1-3.424-3.424V57.315h-.059l-4.237 13.169a2.5 2.5 0 0 1-4.717.007l-4.233-13.029h-.058v11.256a3.447 3.447 0 0 1-3.447 3.447h-.868V51.211z" transform="translate(-247.546 -37.909)" style="fill:#f48678"/>
        <path data-name="Path 1280" d="M34.344 23.5a9.092 9.092 0 0 0-9.119-9.063l-4.308.013v5.94a6.936 6.936 0 0 1-6.928 6.928 7.057 7.057 0 0 1-7.049-7.049 6.936 6.936 0 0 1 6.928-6.928h5.99l-.013-4.278A9.092 9.092 0 0 0 10.726 0L0 .033l.044 14.478h-.01l.027 8.916A10.9 10.9 0 0 0 11 34.3l23.382-.072z" transform="translate(.001)" style="fill:#f48678"/>
        <path data-name="Path 1281" d="M35.07 64.471a4.886 4.886 0 0 0 4.88 4.88 4.765 4.765 0 0 0 4.759-4.759v-4.88h-4.88a4.765 4.765 0 0 0-4.759 4.759" transform="translate(-25.961 -44.202)" style="fill:#f48678"/>
    </g>
</svg>
