<svg xmlns="http://www.w3.org/2000/svg" width="23.359" height="19.971" viewBox="0 0 23.359 19.971">
    <path data-name="Path 66" d="m5.68 3 16 16" style="stroke-linecap:round;fill:none;stroke:#2aa9b2;stroke-width:2px" transform="translate(0 -1.586)"/>
    <path data-name="Path 67" d="M14.055 4.79a1 1 0 0 1 1.271-.619 14.359 14.359 0 0 1 7.566 6.629 3.523 3.523 0 0 1 .34 2.7 1 1 0 0 1-1.927-.534 1.522 1.522 0 0 0-.147-1.165 12.37 12.37 0 0 0-6.483-5.736 1 1 0 0 1-.62-1.275zm-5.3.151a1 1 0 0 1-.55 1.3 12.6 12.6 0 0 0-6 5.554 1.522 1.522 0 0 0 0 1.516c2.222 3.871 5.691 6.242 9.478 6.242a10.135 10.135 0 0 0 7.232-3.253 1 1 0 0 1 1.426 1.4 12.13 12.13 0 0 1-8.661 3.856c-4.686 0-8.735-2.931-11.212-7.246a3.522 3.522 0 0 1 0-3.508 14.585 14.585 0 0 1 6.98-6.412 1 1 0 0 1 1.302.551z" style="fill:#2aa9b2;fill-rule:evenodd" transform="translate(0 -1.586)"/>
    <path data-name="Path 68" d="M14.589 11.825a3 3 0 1 1-2.29-2.2" style="fill:none;stroke:#2aa9b2;stroke-width:2px" transform="translate(0 -1.586)"/>
</svg>
