<svg xmlns="http://www.w3.org/2000/svg" width="26" height="19" viewBox="0 0 26 19">
    <path data-name="Path 77" d="M1 6a2 2 0 0 1 2-2h20a2 2 0 0 1 2 2v13a2 2 0 0 1-2 2H3a2 2 0 0 1-2-2z" style="fill:none;stroke:#14142b;stroke-linejoin:round;stroke-width:2px" transform="translate(0 -3)"/>
    <path data-name="Path 78" d="M2.421 5.3A.75.75 0 0 1 2.928 4h20.144a.75.75 0 0 1 .507 1.3l-8.551 7.839a3 3 0 0 1-4.054 0z" style="fill:none;stroke:#14142b;stroke-linejoin:round;stroke-width:2px" transform="translate(0 -3)"/>
</svg>
